<mxfile host="app.diagrams.net" modified="2024-03-11T08:49:15.982Z" agent="Mozilla/5.0 (Windows NT 10.0; Win64; x64) AppleWebKit/537.36 (KHTML, like Gecko) Chrome/122.0.0.0 Safari/537.36" etag="tmp3sfx9bEl6KHrHDXsh" version="24.0.2" type="device">
  <diagram name="Seite-1" id="apvOrWdnh85U-YdVcC8e">
    <mxGraphModel dx="1000" dy="596" grid="1" gridSize="10" guides="1" tooltips="1" connect="1" arrows="1" fold="1" page="1" pageScale="1" pageWidth="1169" pageHeight="827" math="0" shadow="0">
      <root>
        <mxCell id="0" />
        <mxCell id="1" parent="0" />
        <mxCell id="eKKNuJVC5WugXCJl4W6h-13" style="edgeStyle=orthogonalEdgeStyle;rounded=0;orthogonalLoop=1;jettySize=auto;html=1;exitX=0.75;exitY=1;exitDx=0;exitDy=0;entryX=0.75;entryY=0;entryDx=0;entryDy=0;" edge="1" parent="1" source="eKKNuJVC5WugXCJl4W6h-1" target="eKKNuJVC5WugXCJl4W6h-7">
          <mxGeometry relative="1" as="geometry" />
        </mxCell>
        <mxCell id="eKKNuJVC5WugXCJl4W6h-33" style="edgeStyle=orthogonalEdgeStyle;rounded=0;orthogonalLoop=1;jettySize=auto;html=1;exitX=0.25;exitY=0;exitDx=0;exitDy=0;entryX=0.5;entryY=1;entryDx=0;entryDy=0;" edge="1" parent="1" source="eKKNuJVC5WugXCJl4W6h-1" target="eKKNuJVC5WugXCJl4W6h-32">
          <mxGeometry relative="1" as="geometry" />
        </mxCell>
        <mxCell id="eKKNuJVC5WugXCJl4W6h-1" value="Loginscreen" style="rounded=1;whiteSpace=wrap;html=1;" vertex="1" parent="1">
          <mxGeometry x="395" y="200" width="120" height="30" as="geometry" />
        </mxCell>
        <mxCell id="eKKNuJVC5WugXCJl4W6h-2" value="" style="ellipse;html=1;shape=startState;fillColor=#000000;strokeColor=#000000;" vertex="1" parent="1">
          <mxGeometry x="440" y="130" width="30" height="30" as="geometry" />
        </mxCell>
        <mxCell id="eKKNuJVC5WugXCJl4W6h-3" value="" style="edgeStyle=orthogonalEdgeStyle;html=1;verticalAlign=bottom;endArrow=open;endSize=8;strokeColor=#000000;rounded=0;exitX=0.518;exitY=0.839;exitDx=0;exitDy=0;exitPerimeter=0;" edge="1" source="eKKNuJVC5WugXCJl4W6h-2" parent="1">
          <mxGeometry relative="1" as="geometry">
            <mxPoint x="455" y="200" as="targetPoint" />
          </mxGeometry>
        </mxCell>
        <mxCell id="eKKNuJVC5WugXCJl4W6h-4" value="" style="ellipse;html=1;shape=endState;fillColor=#000000;strokeColor=#000000;" vertex="1" parent="1">
          <mxGeometry x="90" y="320" width="30" height="30" as="geometry" />
        </mxCell>
        <mxCell id="eKKNuJVC5WugXCJl4W6h-6" style="edgeStyle=orthogonalEdgeStyle;rounded=0;orthogonalLoop=1;jettySize=auto;html=1;exitX=1;exitY=0.75;exitDx=0;exitDy=0;" edge="1" parent="1" source="eKKNuJVC5WugXCJl4W6h-1">
          <mxGeometry relative="1" as="geometry">
            <mxPoint x="560" y="230" as="sourcePoint" />
            <mxPoint x="515" y="210" as="targetPoint" />
            <Array as="points">
              <mxPoint x="540" y="223" />
              <mxPoint x="540" y="210" />
            </Array>
          </mxGeometry>
        </mxCell>
        <mxCell id="eKKNuJVC5WugXCJl4W6h-14" style="edgeStyle=orthogonalEdgeStyle;rounded=0;orthogonalLoop=1;jettySize=auto;html=1;exitX=0.25;exitY=0;exitDx=0;exitDy=0;" edge="1" parent="1" source="eKKNuJVC5WugXCJl4W6h-7">
          <mxGeometry relative="1" as="geometry">
            <mxPoint x="425.0769230769231" y="230" as="targetPoint" />
          </mxGeometry>
        </mxCell>
        <mxCell id="eKKNuJVC5WugXCJl4W6h-16" style="edgeStyle=orthogonalEdgeStyle;rounded=0;orthogonalLoop=1;jettySize=auto;html=1;exitX=0;exitY=0.25;exitDx=0;exitDy=0;entryX=1;entryY=0.25;entryDx=0;entryDy=0;" edge="1" parent="1" source="eKKNuJVC5WugXCJl4W6h-7" target="eKKNuJVC5WugXCJl4W6h-10">
          <mxGeometry relative="1" as="geometry">
            <mxPoint x="374" y="276.5" as="sourcePoint" />
          </mxGeometry>
        </mxCell>
        <mxCell id="eKKNuJVC5WugXCJl4W6h-19" style="edgeStyle=orthogonalEdgeStyle;rounded=0;orthogonalLoop=1;jettySize=auto;html=1;exitX=0.25;exitY=1;exitDx=0;exitDy=0;entryX=1;entryY=0.75;entryDx=0;entryDy=0;" edge="1" parent="1" source="eKKNuJVC5WugXCJl4W6h-7" target="eKKNuJVC5WugXCJl4W6h-8">
          <mxGeometry relative="1" as="geometry">
            <Array as="points">
              <mxPoint x="410" y="300" />
              <mxPoint x="410" y="342" />
            </Array>
          </mxGeometry>
        </mxCell>
        <mxCell id="eKKNuJVC5WugXCJl4W6h-21" style="edgeStyle=orthogonalEdgeStyle;rounded=0;orthogonalLoop=1;jettySize=auto;html=1;exitX=1;exitY=0.25;exitDx=0;exitDy=0;entryX=0;entryY=0.25;entryDx=0;entryDy=0;" edge="1" parent="1" source="eKKNuJVC5WugXCJl4W6h-7" target="eKKNuJVC5WugXCJl4W6h-9">
          <mxGeometry relative="1" as="geometry" />
        </mxCell>
        <mxCell id="eKKNuJVC5WugXCJl4W6h-7" value="Startseite" style="rounded=1;whiteSpace=wrap;html=1;" vertex="1" parent="1">
          <mxGeometry x="395" y="270" width="120" height="30" as="geometry" />
        </mxCell>
        <mxCell id="eKKNuJVC5WugXCJl4W6h-18" style="edgeStyle=orthogonalEdgeStyle;rounded=0;orthogonalLoop=1;jettySize=auto;html=1;exitX=1;exitY=0.25;exitDx=0;exitDy=0;entryX=0.042;entryY=1;entryDx=0;entryDy=0;entryPerimeter=0;" edge="1" parent="1" source="eKKNuJVC5WugXCJl4W6h-8" target="eKKNuJVC5WugXCJl4W6h-7">
          <mxGeometry relative="1" as="geometry">
            <Array as="points">
              <mxPoint x="400" y="328" />
            </Array>
          </mxGeometry>
        </mxCell>
        <mxCell id="eKKNuJVC5WugXCJl4W6h-24" style="edgeStyle=orthogonalEdgeStyle;rounded=0;orthogonalLoop=1;jettySize=auto;html=1;exitX=0.5;exitY=1;exitDx=0;exitDy=0;entryX=0;entryY=0.75;entryDx=0;entryDy=0;" edge="1" parent="1" source="eKKNuJVC5WugXCJl4W6h-8" target="eKKNuJVC5WugXCJl4W6h-15">
          <mxGeometry relative="1" as="geometry" />
        </mxCell>
        <mxCell id="eKKNuJVC5WugXCJl4W6h-29" style="edgeStyle=orthogonalEdgeStyle;rounded=0;orthogonalLoop=1;jettySize=auto;html=1;exitX=0;exitY=0.5;exitDx=0;exitDy=0;entryX=1;entryY=0.5;entryDx=0;entryDy=0;" edge="1" parent="1" source="eKKNuJVC5WugXCJl4W6h-8" target="eKKNuJVC5WugXCJl4W6h-4">
          <mxGeometry relative="1" as="geometry" />
        </mxCell>
        <mxCell id="eKKNuJVC5WugXCJl4W6h-8" value="Kategorieseite&lt;span style=&quot;color: rgba(0, 0, 0, 0); font-family: monospace; font-size: 0px; text-align: start; text-wrap: nowrap;&quot;&gt;%3CmxGraphModel%3E%3Croot%3E%3CmxCell%20id%3D%220%22%2F%3E%3CmxCell%20id%3D%221%22%20parent%3D%220%22%2F%3E%3CmxCell%20id%3D%222%22%20value%3D%22Startseite%22%20style%3D%22rounded%3D1%3BwhiteSpace%3Dwrap%3Bhtml%3D1%3B%22%20vertex%3D%221%22%20parent%3D%221%22%3E%3CmxGeometry%20x%3D%22395%22%20y%3D%22270%22%20width%3D%22120%22%20height%3D%2230%22%20as%3D%22geometry%22%2F%3E%3C%2FmxCell%3E%3C%2Froot%3E%3C%2FmxGraphModel%3E&lt;/span&gt;" style="rounded=1;whiteSpace=wrap;html=1;" vertex="1" parent="1">
          <mxGeometry x="150" y="320" width="120" height="30" as="geometry" />
        </mxCell>
        <mxCell id="eKKNuJVC5WugXCJl4W6h-22" style="edgeStyle=orthogonalEdgeStyle;rounded=0;orthogonalLoop=1;jettySize=auto;html=1;exitX=0;exitY=0.75;exitDx=0;exitDy=0;entryX=1;entryY=0.75;entryDx=0;entryDy=0;" edge="1" parent="1" source="eKKNuJVC5WugXCJl4W6h-9" target="eKKNuJVC5WugXCJl4W6h-7">
          <mxGeometry relative="1" as="geometry" />
        </mxCell>
        <mxCell id="eKKNuJVC5WugXCJl4W6h-28" style="edgeStyle=orthogonalEdgeStyle;rounded=0;orthogonalLoop=1;jettySize=auto;html=1;exitX=0.5;exitY=1;exitDx=0;exitDy=0;entryX=1;entryY=0.75;entryDx=0;entryDy=0;" edge="1" parent="1" source="eKKNuJVC5WugXCJl4W6h-9" target="eKKNuJVC5WugXCJl4W6h-15">
          <mxGeometry relative="1" as="geometry" />
        </mxCell>
        <mxCell id="eKKNuJVC5WugXCJl4W6h-35" style="edgeStyle=orthogonalEdgeStyle;rounded=0;orthogonalLoop=1;jettySize=auto;html=1;exitX=1;exitY=0.5;exitDx=0;exitDy=0;entryX=0;entryY=0.5;entryDx=0;entryDy=0;" edge="1" parent="1" source="eKKNuJVC5WugXCJl4W6h-9" target="eKKNuJVC5WugXCJl4W6h-34">
          <mxGeometry relative="1" as="geometry" />
        </mxCell>
        <mxCell id="eKKNuJVC5WugXCJl4W6h-9" value="ToDoseite" style="rounded=1;whiteSpace=wrap;html=1;" vertex="1" parent="1">
          <mxGeometry x="648" y="270" width="120" height="30" as="geometry" />
        </mxCell>
        <mxCell id="eKKNuJVC5WugXCJl4W6h-17" style="edgeStyle=orthogonalEdgeStyle;rounded=0;orthogonalLoop=1;jettySize=auto;html=1;exitX=1;exitY=0.75;exitDx=0;exitDy=0;entryX=0;entryY=0.75;entryDx=0;entryDy=0;" edge="1" parent="1" source="eKKNuJVC5WugXCJl4W6h-10" target="eKKNuJVC5WugXCJl4W6h-7">
          <mxGeometry relative="1" as="geometry">
            <mxPoint x="374" y="291.5" as="targetPoint" />
            <Array as="points">
              <mxPoint x="289" y="251" />
              <mxPoint x="289" y="293" />
            </Array>
          </mxGeometry>
        </mxCell>
        <mxCell id="eKKNuJVC5WugXCJl4W6h-31" style="edgeStyle=orthogonalEdgeStyle;rounded=0;orthogonalLoop=1;jettySize=auto;html=1;exitX=0;exitY=0.5;exitDx=0;exitDy=0;entryX=1;entryY=0.5;entryDx=0;entryDy=0;" edge="1" parent="1" source="eKKNuJVC5WugXCJl4W6h-10" target="eKKNuJVC5WugXCJl4W6h-30">
          <mxGeometry relative="1" as="geometry" />
        </mxCell>
        <mxCell id="eKKNuJVC5WugXCJl4W6h-10" value="Profilseite" style="rounded=1;whiteSpace=wrap;html=1;" vertex="1" parent="1">
          <mxGeometry x="129" y="229" width="120" height="30" as="geometry" />
        </mxCell>
        <mxCell id="eKKNuJVC5WugXCJl4W6h-12" value="[fehlgeschlagene&lt;br&gt;Anmeldung]" style="text;html=1;align=center;verticalAlign=middle;resizable=0;points=[];autosize=1;strokeColor=none;fillColor=none;" vertex="1" parent="1">
          <mxGeometry x="520" y="180" width="110" height="40" as="geometry" />
        </mxCell>
        <mxCell id="eKKNuJVC5WugXCJl4W6h-23" style="edgeStyle=orthogonalEdgeStyle;rounded=0;orthogonalLoop=1;jettySize=auto;html=1;exitX=0;exitY=0.25;exitDx=0;exitDy=0;entryX=0.75;entryY=1;entryDx=0;entryDy=0;" edge="1" parent="1" source="eKKNuJVC5WugXCJl4W6h-15" target="eKKNuJVC5WugXCJl4W6h-8">
          <mxGeometry relative="1" as="geometry" />
        </mxCell>
        <mxCell id="eKKNuJVC5WugXCJl4W6h-27" style="edgeStyle=orthogonalEdgeStyle;rounded=0;orthogonalLoop=1;jettySize=auto;html=1;exitX=1;exitY=0.25;exitDx=0;exitDy=0;entryX=0.25;entryY=1;entryDx=0;entryDy=0;" edge="1" parent="1" source="eKKNuJVC5WugXCJl4W6h-15" target="eKKNuJVC5WugXCJl4W6h-9">
          <mxGeometry relative="1" as="geometry" />
        </mxCell>
        <mxCell id="eKKNuJVC5WugXCJl4W6h-15" value="ToDo erstellen" style="rounded=1;whiteSpace=wrap;html=1;" vertex="1" parent="1">
          <mxGeometry x="440" y="380" width="120" height="30" as="geometry" />
        </mxCell>
        <mxCell id="eKKNuJVC5WugXCJl4W6h-25" style="edgeStyle=orthogonalEdgeStyle;rounded=0;orthogonalLoop=1;jettySize=auto;html=1;exitX=0.25;exitY=0;exitDx=0;exitDy=0;entryX=0.63;entryY=1.052;entryDx=0;entryDy=0;entryPerimeter=0;" edge="1" parent="1" source="eKKNuJVC5WugXCJl4W6h-15" target="eKKNuJVC5WugXCJl4W6h-7">
          <mxGeometry relative="1" as="geometry" />
        </mxCell>
        <mxCell id="eKKNuJVC5WugXCJl4W6h-26" style="edgeStyle=orthogonalEdgeStyle;rounded=0;orthogonalLoop=1;jettySize=auto;html=1;exitX=0.75;exitY=1;exitDx=0;exitDy=0;entryX=0.378;entryY=0.052;entryDx=0;entryDy=0;entryPerimeter=0;" edge="1" parent="1" source="eKKNuJVC5WugXCJl4W6h-7" target="eKKNuJVC5WugXCJl4W6h-15">
          <mxGeometry relative="1" as="geometry" />
        </mxCell>
        <mxCell id="eKKNuJVC5WugXCJl4W6h-30" value="" style="ellipse;html=1;shape=endState;fillColor=#000000;strokeColor=#000000;" vertex="1" parent="1">
          <mxGeometry x="69" y="229" width="30" height="30" as="geometry" />
        </mxCell>
        <mxCell id="eKKNuJVC5WugXCJl4W6h-32" value="" style="ellipse;html=1;shape=endState;fillColor=#000000;strokeColor=#000000;" vertex="1" parent="1">
          <mxGeometry x="395" y="150" width="30" height="30" as="geometry" />
        </mxCell>
        <mxCell id="eKKNuJVC5WugXCJl4W6h-34" value="" style="ellipse;html=1;shape=endState;fillColor=#000000;strokeColor=#000000;" vertex="1" parent="1">
          <mxGeometry x="793" y="270" width="30" height="30" as="geometry" />
        </mxCell>
        <mxCell id="eKKNuJVC5WugXCJl4W6h-36" value="callCategory()" style="text;html=1;align=center;verticalAlign=middle;resizable=0;points=[];autosize=1;strokeColor=none;fillColor=none;" vertex="1" parent="1">
          <mxGeometry x="276" y="338" width="100" height="30" as="geometry" />
        </mxCell>
        <mxCell id="eKKNuJVC5WugXCJl4W6h-37" value="logoButton()" style="text;html=1;align=center;verticalAlign=middle;resizable=0;points=[];autosize=1;strokeColor=none;fillColor=none;" vertex="1" parent="1">
          <mxGeometry x="284" y="302" width="90" height="30" as="geometry" />
        </mxCell>
        <mxCell id="eKKNuJVC5WugXCJl4W6h-38" value="callProfile()" style="text;html=1;align=center;verticalAlign=middle;resizable=0;points=[];autosize=1;strokeColor=none;fillColor=none;" vertex="1" parent="1">
          <mxGeometry x="318" y="250" width="80" height="30" as="geometry" />
        </mxCell>
        <mxCell id="eKKNuJVC5WugXCJl4W6h-39" value="logoButton()" style="text;html=1;align=center;verticalAlign=middle;resizable=0;points=[];autosize=1;strokeColor=none;fillColor=none;" vertex="1" parent="1">
          <mxGeometry x="204" y="267" width="90" height="30" as="geometry" />
        </mxCell>
        <mxCell id="eKKNuJVC5WugXCJl4W6h-40" value="actNewToDo()" style="text;html=1;align=center;verticalAlign=middle;resizable=0;points=[];autosize=1;strokeColor=none;fillColor=none;" vertex="1" parent="1">
          <mxGeometry x="260" y="398" width="100" height="30" as="geometry" />
        </mxCell>
        <mxCell id="eKKNuJVC5WugXCJl4W6h-41" value="buttonClose()" style="text;html=1;align=center;verticalAlign=middle;resizable=0;points=[];autosize=1;strokeColor=none;fillColor=none;" vertex="1" parent="1">
          <mxGeometry x="318" y="364" width="100" height="30" as="geometry" />
        </mxCell>
        <mxCell id="eKKNuJVC5WugXCJl4W6h-42" value="&lt;span style=&quot;color: rgb(0, 0, 0); font-family: Helvetica; font-size: 12px; font-style: normal; font-variant-ligatures: normal; font-variant-caps: normal; font-weight: 400; letter-spacing: normal; orphans: 2; text-align: center; text-indent: 0px; text-transform: none; widows: 2; word-spacing: 0px; -webkit-text-stroke-width: 0px; white-space: nowrap; background-color: rgb(251, 251, 251); text-decoration-thickness: initial; text-decoration-style: initial; text-decoration-color: initial; display: inline !important; float: none;&quot;&gt;buttonClose()&lt;/span&gt;" style="text;whiteSpace=wrap;html=1;" vertex="1" parent="1">
          <mxGeometry x="538" y="356" width="110" height="40" as="geometry" />
        </mxCell>
        <mxCell id="eKKNuJVC5WugXCJl4W6h-43" value="&lt;span style=&quot;color: rgb(0, 0, 0); font-family: Helvetica; font-size: 12px; font-style: normal; font-variant-ligatures: normal; font-variant-caps: normal; font-weight: 400; letter-spacing: normal; orphans: 2; text-align: center; text-indent: 0px; text-transform: none; widows: 2; word-spacing: 0px; -webkit-text-stroke-width: 0px; white-space: nowrap; background-color: rgb(251, 251, 251); text-decoration-thickness: initial; text-decoration-style: initial; text-decoration-color: initial; display: inline !important; float: none;&quot;&gt;actNewToDo()&lt;/span&gt;" style="text;whiteSpace=wrap;html=1;" vertex="1" parent="1">
          <mxGeometry x="589" y="398" width="90" height="30" as="geometry" />
        </mxCell>
        <mxCell id="eKKNuJVC5WugXCJl4W6h-44" value="&lt;span style=&quot;color: rgb(0, 0, 0); font-family: Helvetica; font-size: 12px; font-style: normal; font-variant-ligatures: normal; font-variant-caps: normal; font-weight: 400; letter-spacing: normal; orphans: 2; text-align: center; text-indent: 0px; text-transform: none; widows: 2; word-spacing: 0px; -webkit-text-stroke-width: 0px; white-space: nowrap; background-color: rgb(251, 251, 251); text-decoration-thickness: initial; text-decoration-style: initial; text-decoration-color: initial; display: inline !important; float: none;&quot;&gt;actNewToDo()&lt;/span&gt;" style="text;whiteSpace=wrap;html=1;" vertex="1" parent="1">
          <mxGeometry x="489" y="323" width="90" height="20" as="geometry" />
        </mxCell>
        <mxCell id="eKKNuJVC5WugXCJl4W6h-45" value="&lt;span style=&quot;color: rgb(0, 0, 0); font-family: Helvetica; font-size: 12px; font-style: normal; font-variant-ligatures: normal; font-variant-caps: normal; font-weight: 400; letter-spacing: normal; orphans: 2; text-align: center; text-indent: 0px; text-transform: none; widows: 2; word-spacing: 0px; -webkit-text-stroke-width: 0px; white-space: nowrap; background-color: rgb(251, 251, 251); text-decoration-thickness: initial; text-decoration-style: initial; text-decoration-color: initial; display: inline !important; float: none;&quot;&gt;buttonClose()&lt;/span&gt;" style="text;whiteSpace=wrap;html=1;" vertex="1" parent="1">
          <mxGeometry x="395" y="343" width="80" height="30" as="geometry" />
        </mxCell>
        <mxCell id="eKKNuJVC5WugXCJl4W6h-46" value="callToDoscreen()" style="text;html=1;align=center;verticalAlign=middle;resizable=0;points=[];autosize=1;strokeColor=none;fillColor=none;" vertex="1" parent="1">
          <mxGeometry x="538" y="250" width="110" height="30" as="geometry" />
        </mxCell>
        <mxCell id="eKKNuJVC5WugXCJl4W6h-47" value="logoButton()" style="text;html=1;align=center;verticalAlign=middle;resizable=0;points=[];autosize=1;strokeColor=none;fillColor=none;" vertex="1" parent="1">
          <mxGeometry x="558" y="290" width="90" height="30" as="geometry" />
        </mxCell>
        <mxCell id="eKKNuJVC5WugXCJl4W6h-49" value="callStartscreen()" style="text;html=1;align=center;verticalAlign=middle;resizable=0;points=[];autosize=1;strokeColor=none;fillColor=none;" vertex="1" parent="1">
          <mxGeometry x="479" y="230" width="110" height="30" as="geometry" />
        </mxCell>
        <mxCell id="eKKNuJVC5WugXCJl4W6h-50" value="logout()" style="text;html=1;align=center;verticalAlign=middle;resizable=0;points=[];autosize=1;strokeColor=none;fillColor=none;" vertex="1" parent="1">
          <mxGeometry x="374" y="230" width="60" height="30" as="geometry" />
        </mxCell>
        <mxCell id="eKKNuJVC5WugXCJl4W6h-51" value="sm" style="shape=umlFrame;whiteSpace=wrap;html=1;pointerEvents=0;" vertex="1" parent="1">
          <mxGeometry x="40" y="100" width="820" height="370" as="geometry" />
        </mxCell>
      </root>
    </mxGraphModel>
  </diagram>
</mxfile>
